<svg xmlns="http://www.w3.org/2000/svg" xmlns:xlink="http://www.w3.org/1999/xlink" width="160" height="465" viewBox="0 0 160 465">
  <defs>
    <clipPath id="clip-Artboard_1">
      <rect width="160" height="465"/>
    </clipPath>
  </defs>
  <g id="Artboard_1" data-name="Artboard – 1" clip-path="url(#clip-Artboard_1)">
    <g id="undraw_Mobile_application_mr4r" transform="translate(0.022 0.167)">
      <path id="Path_15" data-name="Path 15" d="M749.584,420.725v29.153s-2.332,32.651-15.159,48.977c0,0-20.99,29.736-23.905,23.322l3.59-21.115,12.152-11.536,6.414-36.15,1.749-32.651Z" transform="translate(-595.616 -274.492)" fill="#ffb8b8"/>
      <path id="Path_16" data-name="Path 16" d="M661.633,524.941v21.573l17.491,6.414V527.856Z" transform="translate(-636.521 -115.167)" fill="#ffb8b8"/>
      <path id="Path_17" data-name="Path 17" d="M647.056,522.609,635.4,548.846l16.325,7,3.5-25.654Z" transform="translate(-586.378 -115.167)" fill="#ffb8b8"/>
      <path id="Path_18" data-name="Path 18" d="M758.505,480.779s-23.322,210.483-14.576,211.066,25.654,11.661,25.654,4.081,13.411-106.115,13.411-106.115l12.827-50.726v69.967l-13.41,79.3s12.827,16.909,22.156,7L824.391,617.8s26.237-117.778,25.071-127.107C849.462,490.691,789.407,439.382,758.505,480.779Z" transform="translate(-726.98 -274.492)" fill="#2f2e41"/>
      <path id="Path_19" data-name="Path 19" d="M855.741,707.005s-4.664-9.912-15.159-3.5L831.836,714s-22.549,18.673-6.549,22.673c16.491,4.123,26.372-.263,26.372-.263s2.915-1.749,5.247-1.749,7.58-4.081,7.58-5.247-1.749-21.827-1.749-21.827a3.676,3.676,0,0,0-4.081.583C856.907,709.92,855.741,707.005,855.741,707.005Z" transform="translate(-819.551 -274.492)" fill="#2f2e41"/>
      <path id="Path_20" data-name="Path 20" d="M806.459,703.507s-11.078-8.746-16.326,1.166c0,0-3.3,1.166-3.693,0s-3.3-1.749-3.3,4.664-3.166,22.41-.251,22.993,5.831,2.332,5.247,4.664,3.166,2.661,16.576,2.078,13.993-5.831,13.993-5.831,0-7.58-3.5-11.661S806.459,703.507,806.459,703.507Z" transform="translate(-735.868 -274.492)" fill="#2f2e41"/>
      <path id="Path_21" data-name="Path 21" d="M757.841,321.605s2.915,21.573-15.742,29.153,41.4,32.651,47.227,18.075-1.166-19.241-1.166-19.241-5.831-5.831-.583-21.573Z" transform="translate(-665.677 -274.492)" fill="#ffb8b8"/>
      <circle id="Ellipse_2" data-name="Ellipse 2" cx="25.654" cy="25.654" r="25.654" transform="translate(85.167 10.964)" fill="#ffb8b8"/>
      <path id="Path_22" data-name="Path 22" d="M751.33,357.755s17.492,9.329,34.4,2.332,16.326,23.322,16.326,23.322l-8.746,22.739-60.638-5.831,4.081-34.983Z" transform="translate(-670.245 -274.492)" fill="#f2f2f2"/>
      <path id="Path_23" data-name="Path 23" d="M776.629,337.8a21.166,21.166,0,0,0-14.521,11.2l-27.987,8.746-7,9.912,8.163,71.716s-15.159,14.576-15.159,22.739-18.658,36.149-9.329,32.651,26.237-15.742,26.237-15.742,42.563,1.749,55.973,13.41,18.658,8.163,18.658,8.163,13.993-60.638,14.576-69.967,16.909-65.3,16.909-65.3L814,349.009l-7.425-8.425L786.014,373.5l-18.657-22.739S776.574,343.508,776.629,337.8Z" transform="translate(-686.854 -274.492)" fill="#3f3d56"/>
      <path id="Path_24" data-name="Path 24" d="M832.614,412.562l-3.5,18.658s-15.742,58.306-13.41,78.129c0,0-1.749,44.312,8.163,39.065s4.664-37.316,4.664-37.316l13.993-57.722,7.58-33.817Z" transform="translate(-801.088 -274.492)" fill="#ffb8b8"/>
      <path id="Path_25" data-name="Path 25" d="M836.68,364.168l-5.831,3.5s-22.156,46.061-16.909,49.56S841.927,428.3,841.927,428.3Z" transform="translate(-790.578 -274.492)" fill="#3f3d56"/>
      <path id="Path_26" data-name="Path 26" d="M553.185,206.01l13.7-.292,3.206,5.539-4.081,56.557-20.99,4.664Z" transform="translate(-410.879 -115.167)" fill="#3f3d56"/>
      <path id="Path_27" data-name="Path 27" d="M727.338,289.413l-4.624-1.681s9.669-9.669,23.12-8.828l-3.783-3.783s9.248-3.363,17.656,5.465c4.42,4.641,9.533,10.1,12.721,16.24h4.952l-2.067,4.134,7.234,4.134-7.425-.742a20.859,20.859,0,0,1-.7,10.706l-1.681,4.624s-6.726-13.452-6.726-15.133v4.2s-4.624-3.783-4.624-6.306l-2.522,2.943-1.261-4.624-15.554,4.624,2.522-3.783-9.669,1.261,3.783-4.624s-10.93,5.465-11.35,10.089-3.306,10.652-3.306,10.652l-3.5-4.081S715.147,295.719,727.338,289.413Z" transform="translate(-637.407 -274.492)" fill="#2f2e41"/>
      <ellipse id="Ellipse_3" data-name="Ellipse 3" cx="2.041" cy="5.247" rx="2.041" ry="5.247" transform="translate(87.208 31.663)" fill="#ffb8b8"/>
    </g>
  </g>
</svg>
