<?xml version="1.0" encoding="utf-8"?>
<!-- Generator: Adobe Illustrator 24.0.2, SVG Export Plug-In . SVG Version: 6.00 Build 0)  -->
<svg version="1.1" id="Layer_1" xmlns="http://www.w3.org/2000/svg" xmlns:xlink="http://www.w3.org/1999/xlink" x="0px" y="0px"
	 viewBox="0 0 1920 1080" style="enable-background:new 0 0 1920 1080;" xml:space="preserve">
<g>
	<path d="M929.5,646.5L790.15,523.07c-0.42-0.37-0.96-0.57-1.51-0.57H748.6c-0.61,0-1.1,0.49-1.1,1.1v143.67
		c0,1.23,1,2.23,2.23,2.23h25.17c1.44,0,2.6-1.16,2.6-2.6V563.5c0-1.55,1.83-2.37,2.99-1.34l121.48,108.08
		c10.08,8.97,14.07,23.22,9.41,35.88C907,718,896,728,869.5,720.5c0,0-22.57-6.87-28.83-39.07c-0.1-0.54-0.57-0.93-1.11-0.93h-29.05
		c-0.58,0-1.06,0.45-1.1,1.03c-0.42,6.5-0.8,42.31,39.09,64.97c44,25,78-4,78-4s30-20,19-70C945.5,672.5,938.5,653.5,929.5,646.5z"
		/>
	<path d="M1033.05,526.5h-29.16c-0.77,0-1.39,0.62-1.39,1.39v107.8c0,1.48-1.75,2.27-2.86,1.29L878.6,530.12
		c-5.25-4.63-9.33-10.5-11.58-17.13c-3.44-10.14-3.55-24.24,13.69-35.97c0.66-0.45,1.37-0.84,2.1-1.16
		c5.41-2.4,26.54-9.59,46.31,13.21c0.28,0.32,0.53,0.66,0.75,1.01c1.46,2.29,6.75,11.31,9.41,25.29c0.12,0.65,0.69,1.13,1.35,1.13
		l29.33,0c0.89,0,1.64-0.66,1.73-1.55c0.84-8.22,1.87-47.26-50.4-70.07c-4.41-1.92-9.08-3.18-13.85-3.71
		c-16.84-1.87-55.51-1.11-70.95,41.33c-16.68,45.86,19.67,72.43,31.04,81.61c2.96,2.39,5.96,4.39,8.82,6.76l114.44,102.99
		c0.46,0.41,1.05,0.64,1.66,0.64h40.95c0.6,0,1.09-0.49,1.09-1.09V527.95C1034.5,527.15,1033.85,526.5,1033.05,526.5z"/>
</g>
</svg>
