<svg xmlns="http://www.w3.org/2000/svg" xmlns:xlink="http://www.w3.org/1999/xlink" width="200" height="234" viewBox="0 0 200 234">
  <defs>
    <clipPath id="clip-Artboard_1">
      <rect width="200" height="234"/>
    </clipPath>
  </defs>
  <g id="Artboard_1" data-name="Artboard – 1" clip-path="url(#clip-Artboard_1)">
    <path id="Path_1" data-name="Path 1" d="M747.5,523.268V623.641a1.556,1.556,0,0,0,1.557,1.557h17.586a1.816,1.816,0,0,0,1.816-1.816V551.145a1.255,1.255,0,0,1,2.089-.938l84.867,75.507a23.07,23.07,0,0,1,6.572,25.07c-3.057,8.3-10.741,15.282-29.255,10.043,0,0-15.767-4.8-20.138-27.3a.8.8,0,0,0-.778-.648H791.522a.767.767,0,0,0-.768.718c-.293,4.538-.56,29.557,27.307,45.391,30.739,17.466,54.493-2.794,54.493-2.794s20.959-13.972,13.274-48.9c0,0-4.89-13.274-11.178-18.164L777.295,522.9a1.594,1.594,0,0,0-1.058-.4H748.268A.768.768,0,0,0,747.5,523.268Z" transform="translate(-742 -456.429)"/>
    <path id="Path_2" data-name="Path 2" d="M929.344,492.385c.586-5.727,1.3-32.912-35.1-48.8A33.294,33.294,0,0,0,884.6,441c-11.73-1.3-38.655-.776-49.4,28.783-11.613,31.934,13.695,50.44,21.615,56.831,2.062,1.664,4.151,3.057,6.14,4.708l79.69,71.72a1.726,1.726,0,0,0,1.155.444h28.519a.762.762,0,0,0,.762-.762V501.437a1.01,1.01,0,0,0-1.01-1.01H951.755a.966.966,0,0,0-.965.965v75.065a1.2,1.2,0,0,1-1.994.9L864.512,502.95a28,28,0,0,1-8.061-11.927c-2.4-7.063-2.473-16.883,9.535-25.05a9.215,9.215,0,0,1,1.464-.808c3.769-1.67,18.484-6.682,32.246,9.2a6.02,6.02,0,0,1,.524.7,52.023,52.023,0,0,1,6.554,17.611.964.964,0,0,0,.942.788h20.425A1.2,1.2,0,0,0,929.344,492.385Z" transform="translate(-781 -434.99)"/>
  </g>
</svg>
